# xmcd
#
# Track frame offsets: 
#        150
#        3750
#        23339
#        44408
#        69595
#        86603
#        96319
#        116412
#        144433
#        160146
#        174190
#        189703
#        210630
#        233456
#        239101
#        255498
#        269057
#        290907
#
# Disc length: 4051 seconds
#
# Revision: 1
# Processed by: cddbd v1.5.2PL0 Copyright (c) Steve Scherf et al.
# Submitted via: ExactAudioCopy v1.0b3
#
DISCID=f70fd112
DTITLE=A.C.T - Last Epic
DYEAR=2003
DGENRE=Progressive Rock and Metal
TTITLE0=Intro
TTITLE1=Wailings From A Building
TTITLE2=Mr. Landlord
TTITLE3=Torn By A Phrase
TTITLE4=Ted's Ballad
TTITLE5=Dance Of Mr. Gumble
TTITLE6=Wake Up
TTITLE7=Manipulator
TTITLE8=A Loaded Situation
TTITLE9=The Observer
TTITLE10=The Cause
TTITLE11=The Effect
TTITLE12=Summary
TTITLE13=Outro
TTITLE14=Ted's Ballad (Demo) [Bonus Material]
TTITLE15=Summary (Demo) [Bonus Material]
TTITLE16=Mr.Landlord (Demo) [Bonus Material]
TTITLE17=String Medley [Bonus Material]
EXTD=
EXTT0=
EXTT1=
EXTT2=
EXTT3=
EXTT4=
EXTT5=
EXTT6=
EXTT7=
EXTT8=
EXTT9=
EXTT10=
EXTT11=
EXTT12=
EXTT13=
EXTT14=
EXTT15=
EXTT16=
EXTT17=
PLAYORDER=
